{
  "accessors": [
    {
      "bufferView": 2,
      "componentType": 5126,
      "count": 17320,
      "max": [
        3.6917600631713867,
        3.1118600368499756,
        0.9968900084495544
      ],
      "min": [
        -6.509799957275391,
        -9.211219787597656,
        -10.360989570617676
      ],
      "type": "VEC3"
    },
    {
      "bufferView": 2,
      "byteOffset": 207840,
      "componentType": 5126,
      "count": 17320,
      "max": [
        0.9995889663696289,
        0.9997284412384033,
        0.999957263469696
      ],
      "min": [
        -0.99994295835495,
        -0.9982554316520691,
        -0.999751091003418
      ],
      "type": "VEC3"
    },
    {
      "bufferView": 0,
      "componentType": 5125,
      "count": 103908,
      "type": "SCALAR"
    },
    {
      "bufferView": 2,
      "byteOffset": 415680,
      "componentType": 5126,
      "count": 7100,
      "max": [
        7.341249942779541,
        65.85173797607422,
        9.556920051574707
      ],
      "min": [
        -7.260159969329834,
        47.90943908691406,
        0.2403700053691864
      ],
      "type": "VEC3"
    },
    {
      "bufferView": 2,
      "byteOffset": 500880,
      "componentType": 5126,
      "count": 7100,
      "max": [
        0.9993627667427063,
        0.9999316930770874,
        0.9999796748161316
      ],
      "min": [
        -0.9993608593940735,
        -0.9999943375587463,
        -0.9917734861373901
      ],
      "type": "VEC3"
    },
    {
      "bufferView": 3,
      "componentType": 5126,
      "count": 7100,
      "max": [
        1.0,
        0.9997205138206482,
        0.9976264834403992,
        1.0
      ],
      "min": [
        -0.9998406767845154,
        -0.9993386268615723,
        -0.9975615739822388,
        -1.0
      ],
      "type": "VEC4"
    },
    {
      "bufferView": 2,
      "byteOffset": 586080,
      "componentType": 5126,
      "count": 7100,
      "max": [
        1.0,
        1.0,
        1.0
      ],
      "min": [
        0.0,
        0.0,
        0.0
      ],
      "type": "VEC3"
    },
    {
      "bufferView": 1,
      "componentType": 5126,
      "count": 7100,
      "max": [
        0.8105300068855286,
        0.5651599764823914
      ],
      "min": [
        0.0,
        0.0
      ],
      "type": "VEC2"
    },
    {
      "bufferView": 1,
      "byteOffset": 56800,
      "componentType": 5126,
      "count": 7100,
      "max": [
        0.8105300068855286,
        0.5651599764823914
      ],
      "min": [
        0.0,
        0.0
      ],
      "type": "VEC2"
    },
    {
      "bufferView": 1,
      "byteOffset": 113600,
      "componentType": 5126,
      "count": 7100,
      "max": [
        0.8105300068855286,
        0.5651599764823914
      ],
      "min": [
        0.0,
        0.0
      ],
      "type": "VEC2"
    },
    {
      "bufferView": 1,
      "byteOffset": 170400,
      "componentType": 5126,
      "count": 7100,
      "max": [
        0.8105300068855286,
        0.5651599764823914
      ],
      "min": [
        0.0,
        0.0
      ],
      "type": "VEC2"
    },
    {
      "bufferView": 1,
      "byteOffset": 227200,
      "componentType": 5126,
      "count": 7100,
      "max": [
        0.8105300068855286,
        0.5651599764823914
      ],
      "min": [
        0.0,
        0.0
      ],
      "type": "VEC2"
    },
    {
      "bufferView": 0,
      "byteOffset": 415632,
      "componentType": 5125,
      "count": 38994,
      "type": "SCALAR"
    }
  ],
  "asset": {
    "extras": {
      "author": "sleepwalker77 (https://sketchfab.com/sleepwalker77)",
      "license": "CC-BY-4.0 (http://creativecommons.org/licenses/by/4.0/)",
      "source": "https://sketchfab.com/3d-models/porcelain-mask-596d7fbddfdd4cbab5a81878e1bd7741",
      "title": "Porcelain Mask"
    },
    "generator": "Sketchfab-12.65.0",
    "version": "2.0"
  },
  "bufferViews": [
    {
      "buffer": 0,
      "byteLength": 571608,
      "name": "floatBufferViews",
      "target": 34963
    },
    {
      "buffer": 0,
      "byteLength": 284000,
      "byteOffset": 571608,
      "byteStride": 8,
      "name": "floatBufferViews",
      "target": 34962
    },
    {
      "buffer": 0,
      "byteLength": 671280,
      "byteOffset": 855608,
      "byteStride": 12,
      "name": "floatBufferViews",
      "target": 34962
    },
    {
      "buffer": 0,
      "byteLength": 113600,
      "byteOffset": 1526888,
      "byteStride": 16,
      "name": "floatBufferViews",
      "target": 34962
    }
  ],
  "buffers": [
    {
      "byteLength": 1640488,
      "uri": "scene.bin"
    }
  ],
  "images": [
    {
      "uri": "textures/Material.000_baseColor.png"
    },
    {
      "uri": "textures/Material.000_metallicRoughness.png"
    },
    {
      "uri": "textures/Material.000_normal.png"
    }
  ],
  "materials": [
    {
      "doubleSided": true,
      "name": "Material.000",
      "normalTexture": {
        "index": 2,
        "scale": 0.6968368902439024
      },
      "occlusionTexture": {
        "index": 1
      },
      "pbrMetallicRoughness": {
        "baseColorTexture": {
          "index": 0
        },
        "metallicFactor": 0.532202743902439,
        "metallicRoughnessTexture": {
          "index": 1
        },
        "roughnessFactor": 0.3214557926829268
      }
    },
    {
      "doubleSided": true,
      "name": "Material",
      "pbrMetallicRoughness": {
        "baseColorFactor": [
          0.157358623777223,
          0.00212457951419471,
          0.003940170642734747,
          1.0
        ],
        "metallicFactor": 0.9163490853658537,
        "roughnessFactor": 0.29706554878048785
      }
    }
  ],
  "meshes": [
    {
      "name": "Mball.007_0",
      "primitives": [
        {
          "attributes": {
            "NORMAL": 1,
            "POSITION": 0
          },
          "indices": 2,
          "material": 1,
          "mode": 4
        }
      ]
    },
    {
      "name": "blMilMan_m4b_68498-sk_0",
      "primitives": [
        {
          "attributes": {
            "COLOR_0": 6,
            "NORMAL": 4,
            "POSITION": 3,
            "TANGENT": 5,
            "TEXCOORD_0": 7,
            "TEXCOORD_1": 8,
            "TEXCOORD_2": 9,
            "TEXCOORD_3": 10,
            "TEXCOORD_4": 11
          },
          "indices": 12,
          "material": 0,
          "mode": 4
        }
      ]
    }
  ],
  "nodes": [
    {
      "children": [
        1
      ],
      "matrix": [
        1.0,
        0.0,
        0.0,
        0.0,
        0.0,
        2.220446049250313e-16,
        -1.0,
        0.0,
        0.0,
        1.0,
        2.220446049250313e-16,
        0.0,
        0.0,
        0.0,
        0.0,
        1.0
      ],
      "name": "Sketchfab_model"
    },
    {
      "children": [
        2,
        4,
        6,
        8,
        10,
        12
      ],
      "name": "Root"
    },
    {
      "children": [
        3
      ],
      "matrix": [
        0.23627,
        0.016810000000000002,
        0.0016700000000000003,
        0.0,
        -0.008310000000000001,
        0.13607,
        -0.19371000000000005,
        0.0,
        -0.014710000000000003,
        0.19316000000000003,
        0.13631000000000001,
        0.0,
        3.81093,
        5.477650000000001,
        5.74195,
        1.0
      ],
      "name": "Mball.007"
    },
    {
      "mesh": 0,
      "name": "Mball.007_0"
    },
    {
      "children": [
        5
      ],
      "matrix": [
        1.5620100000000001,
        0.0,
        0.6822600000000001,
        0.0,
        -0.0,
        1.7045100000000002,
        -0.0,
        0.0,
        -0.6822600000000001,
        -0.0,
        1.5620100000000001,
        0.0,
        -11.90783,
        2.51933,
        1.8139199999999998,
        1.0
      ],
      "name": "Point.003"
    },
    {
      "name": "Point.003"
    },
    {
      "children": [
        7
      ],
      "matrix": [
        1.5620100000000001,
        0.0,
        0.6822600000000001,
        0.0,
        -0.0,
        1.7045100000000002,
        -0.0,
        0.0,
        -0.6822600000000001,
        -0.0,
        1.5620100000000001,
        0.0,
        -3.9794399999999994,
        12.186440000000001,
        9.195640000000001,
        1.0
      ],
      "name": "Point.002"
    },
    {
      "name": "Point.002"
    },
    {
      "children": [
        9
      ],
      "matrix": [
        1.5620100000000001,
        0.0,
        0.6822600000000001,
        0.0,
        -0.0,
        1.7045100000000002,
        -0.0,
        0.0,
        -0.6822600000000001,
        -0.0,
        1.5620100000000001,
        0.0,
        3.4081200000000003,
        -3.3946499999999995,
        15.641289999999998,
        1.0
      ],
      "name": "Point.001"
    },
    {
      "name": "Point.001"
    },
    {
      "children": [
        11
      ],
      "matrix": [
        1.0,
        0.0,
        0.0,
        0.0,
        0.0,
        1.0,
        0.0,
        0.0,
        0.0,
        0.0,
        1.0,
        0.0,
        0.0,
        -54.08099,
        0.0,
        1.0
      ],
      "name": "blMilMan_m4b_68498-sk"
    },
    {
      "mesh": 1,
      "name": "blMilMan_m4b_68498-sk_0"
    },
    {
      "children": [
        13
      ],
      "matrix": [
        1.5620100000000001,
        0.0,
        0.6822600000000001,
        0.0,
        -0.0,
        1.7045100000000002,
        -0.0,
        0.0,
        -0.6822600000000001,
        -0.0,
        1.5620100000000001,
        0.0,
        -5.3345199999999995,
        1.05456,
        5.16764,
        1.0
      ],
      "name": "Point.004"
    },
    {
      "name": "Point.004"
    }
  ],
  "samplers": [
    {
      "magFilter": 9729,
      "minFilter": 9987,
      "wrapS": 10497,
      "wrapT": 10497
    }
  ],
  "scene": 0,
  "scenes": [
    {
      "name": "Sketchfab_Scene",
      "nodes": [
        0
      ]
    }
  ],
  "textures": [
    {
      "sampler": 0,
      "source": 0
    },
    {
      "sampler": 0,
      "source": 1
    },
    {
      "sampler": 0,
      "source": 2
    }
  ]
}
